<svg xmlns="http://www.w3.org/2000/svg" width="150" height="76">
  <g fill="none" fill-rule="evenodd">
    <path fill="#FEFEFE" d="M113.909949 40.2287472c-.486583.2187455-.970352.4360797-1.448496.6590589-.153288.0719743-.307981.1439487-.464081.2145117-.638464.2949536-1.299428.599786-1.963205.9681252-.756593.4205558-1.345835.8792156-1.866168 1.2856588-.146256.1129009-.292512.2272131-.444393.340114-.776282.5814396-2.013831 1.6568206-2.736673 2.4513606-.014063.0169351-.029532.0352815-.043596.0522166.01547-.3937418.029533-.8255877.019689-1.2870701-.066097-3.3094074-.082972-4.4595852-.085785-4.842037-.002813-.4530148-.021095-.9469562-.039377-1.4253737-.016875-.4671275-.035157-.95119-.035157-1.3435206-.001407-.3330576.018282-.7451459.03797-1.1826368.023907-.5038203.047814-1.0231644.047814-1.5396859 0-.3965644.005626-.7493797.012657-1.10784.007032-.3951532.014063-.7945401.014063-1.2489661 0-.8382891-.047814-3.7130281-.067502-4.5357933-.011251-.4939414-.033752-1.1120738-.054846-1.7048035-.014063-.378218-.02672-.7465571-.036564-1.0612683-.014063-.4657162-.039377-.9201423-.06469-1.3590445-.021095-.3570491-.04219-.7140981-.054846-1.0683247-.01547-.4516036-.063284-1.1981607-.112505-1.9884669-.045002-.697163-.090004-1.4169062-.10266-1.7711328-.012657-.3260013-.045002-.8862719-.084379-1.5340408-.033751-.5757945-.068909-1.1741693-.084378-1.5425084-.004219-.0987883-.009844-.2102779-.018282-.3330577.253135-.0254027.490801-.0536279.71581-.0804418.284074-.0338703.554085-.0663293.749561-.0762081.185633-.0098789.368453-.0098789.545647-.0127014.788938-.0070563 1.852106-.0239914 2.940588-.5038202-.205321 1.302594-.51049 3.2868272-.596274 3.928951-.09141.6759941-.08016 1.2927152-.071722 1.7894791.005625.2794297.009844.567327-.008438.729622-.030939.2681396-.063284.5376905-.097035.8058301-.068909.5574482-.139224 1.1332427-.192664 1.7146823-.025314.2780184-.071722.5856734-.120942.9116747-.071722.48124-.153288 1.0259868-.188446 1.6116602-.036564.6393013-.172975 4.3353942-.073128 5.4192428.132193 1.459244.497833 2.7576042 1.058949 3.7553658.444393.7959513.997072 1.7146823 1.70585 2.4936985.801595.8820382 1.535687 1.3858584 2.392128 1.8713322.28548.162295.628619.3372914 1.008322.5052315-.030939.0141126-.061878.0282252-.092816.0409266zM90.0744574 21.6128016c-.018282.3753954-.0590649.865103-.0998478 1.3392868-.0365639.4290234-.0717216.859458-.0970351 1.2531999-.0253135.4036206-.1350055 1.6271841-.2236028 2.6108331-.0759405.8524017-.1476622 1.6511755-.174382 2.0209259-.032345.4219671-.0562523.8622806-.0815658 1.3068278-.0210946.3979757-.0435955.7987738-.0731279 1.1896931-.0379703.5136991-.0435955.9963504-.0492208 1.4225513-.0042189.3542265-.0084378.6901067-.0309387.9949391-.0210946.2963648-.068909.6872841-.1195361 1.1007837-.0660964.5362792-.1335991 1.0909048-.1673505 1.6229503-.0182819.3048324-.1392243 1.6497642-.2461036 2.8366348-.2095397 2.3158796-.3375136 3.7595997-.3586082 4.2591861-.0210946.4840626-.0126568 1.3279968.0028126 2.6630498.0084378.7931288.0196883 1.7824228.0084378 2.0830214-.0154693.4403135-.0267198.9201423-.0365639 1.3929148-.0098442.4191445-.0196883.8340553-.0323451 1.2066282-.014063.3796293-.1026604 1.5636774-.1729757 2.5148674-.087191 1.1911044-.142037 1.9418953-.1589126 2.3342259-.004219.1030221-.0140631.2554383-.0267199.4374909-.050627-.4177332-.1068793-.8255877-.1631315-1.2066282l-.0084379-.0677406c-.123755-.8481679-.3993911-1.5340408-.6215875-2.0844327-.0857847-.2145116-.1828199-.4586598-.210946-.5715607-.1954766-.821354-.4289235-1.6652881-.7129975-2.5811966-.2264153-.7282108-.4837695-1.4253738-.7326857-2.0985453l-.1378181-.372573c-.225009-.6153098-.4711127-1.205217-.7073722-1.7753665-.0843784-.2018103-.1687568-.4036207-.2531352-.611076-.2081334-.5066428-1.5553751-3.7553659-1.9632041-4.6458717-.3417325-.7437346-.6919028-1.4931143-1.0491047-2.2509615-.3459514-.7352671-.6961218-1.4775904-1.0533237-2.2269701-.0703153-.1495937-.1603189-.4332571-.2461036-.7070418-.142037-.4516036-.3192316-1.0146968-.5962741-1.6003701-.1561-.3302351-.3164189-.6604702-.4767379-.9907053-.192664-.3979757-.3867343-.7959513-.5737731-1.199572-.2025082-.4389022-.4204857-.8481679-.614556-1.2094508-.1800073-.3372914-.3501704-.6576477-.4795506-.9441337-.1293802-.2893085-.2573541-.6336562-.3923595-.9977616-.1406307-.3768067-.2995433-.8030076-.4865821-1.237676-.1448496-.3372914-.2854803-.7084531-.4331425-1.0993725.0140631.0084676.0281262.0169352.0407829.0254027.7115912.4671275 1.5961581 1.0471558 2.7830809 1.1374765.1504748.0112901.3037622.0169352.454237.0169352 2.0236752 0 3.3877927-1.037277 3.8364045-1.3773909 1.1264516-.8566355 1.9477347-2.0378611 2.3752519-3.4180745l.0660964-.2116892c.2334469-.7380895.5512722-1.7485525.5498659-2.9100204 0-.3753955.0042189-.7550247.0084378-1.1374765.004219-.4078545.0084379-.8185314.0084379-1.2292084 0-.3824518-.0210946-.7479684-.0464081-1.0937274.5948677.1665288 1.2558318.254027 1.9828923.254027.4345488 0 .9042552-.026814 1.4794346-.0832644 0 0 .352983-.0352815.4893947-.0493942.0126568.2512045.0196883.5362793.0281261.8284103.0056253.1679401.0098442.340114.0154694.5151103.0210946.6378901.0154694 3.8612105-.0210946 4.6218803zm59.0606596 9.9846725l-.413454-2.3596286c-.464081-1.2574337-1.077231-2.2834205-1.873201-3.1329998-1.150358-1.2306197-2.528539-1.8558083-4.093758-1.8558083-.260167 0-.523146.0169351-.800189.0522166-1.441464.1778189-2.622761.826999-3.490453 1.3717458-.154693.0973771-.316419.1905203-.47955.2878973-.528772.3076549-1.186923.691518-1.846481 1.2348535l-.396578.3231788c-.319232.2610833-.783313.7352671-1.109576 1.0076405.036564-.1735852.213758-.5602707.251729-.7465572.12938-.6336562.267198-1.2743688.396578-1.8840336l.1561-.7282107c.133599-.6294225.230634-1.1882819.309388-1.6356517.060471-.3443477.112504-.6421238.158912-.8509905.05344-.2342693.10688-.4995864.164538-.7903062.088597-.4459585.189852-.95119.322044-1.4733566.120943-.4770063.217978-.9596576.310794-1.4253738.066097-.3274125.133599-.664704.212352-1.0048179.175789-.7606697.350171-1.6031926.518928-2.5063998.143443-.7634922.226415-1.5185169.299543-2.1846322.016876-.1594725.033751-.3175338.052033-.4741837.112505-.9737702.158913-1.9348391.140631-2.8549813-.004219-.1749964-.004219-.3485815-.002813-.51793285.001407-.90179586.002813-2.02515973-.454237-3.15275737-.784719-1.9390728-2.504632-3.28541592-4.597216-3.60153842-.832534-.12419098-1.499123-.18346394-2.099616-.18346394-.572367 0-1.089888.05221666-1.582095.1594725-1.859137.4036207-2.956056 1.63565166-3.543893 2.29753313-.054846.0620955-.109692.12277972-.163131.18064143-.050627.05645044-.136412.1340698-.234853.22580178-.151882.13971485-.333295.30624366-.525959.5122878-.119536-.6689378-.388141-1.30541656-.90988-1.88262236-1.044886-1.16005666-2.641044-1.90520253-4.494556-2.09995657-.205321-.02116892-.416267-.03104775-.625807-.03104775-1.160203 0-2.161493.32600133-2.892773.56591572-.10266.032459-.203914.06632927-.305168.09737702l-.147662.0465716c-.829721.2582608-2.07149.64776888-3.067155 1.61730527-.24751-.4981752-.541428-.95260127-.87191-1.33081926-1.358492-1.55662103-3.549518-1.91084757-4.732222-1.98423315-.175788-.0112901-.358608-.01693514-.542834-.01693514-.63987 0-1.205205.064918-1.660849.1157234-.147662.01693514-.348764.03951532-.430329.0437491-.323451-.00423378-.710185-.04233783-1.11942-.08185314-.497833-.04939414-1.061762-.10443332-1.652411-.1129009-.92535-.0141126-1.8450741-.03104774-2.7704239-.0465716-.1209423-.00282253-.2418847-.00282253-.3628271-.00282253-.3895469 0-.7805001.00987882-1.1714534.01975764-.3332947.00987883-.6679956.0183464-1.0026966.0183464-.0815658 0-.3557956-.00282252-.4106416-.00282252-.5793983 0-1.1137948.04939414-1.5849075.09314323-.3656398.03387027-.7101849.06632928-.9928525.06632928h-.0478144c-.1167235-.00141126-.40361-.02681397-.6567452-.04939414-.4640812-.03951533-1.0406669-.09032073-1.6678797-.10443334-.1561-.00423378-.3150127-.00564504-.4739253-.00564504-.9253498 0-1.7775716.06774053-2.5341646.20039908-.7748749.13548107-3.1360638.55039184-4.3693947 2.76889434-.0239072.04092658-.0520333.0874982-.0843784.13971486-.1350054.22721304-.316419.5334567-.4992389.90602964-.7467488-.76066975-1.5638129-1.3830359-2.4343167-1.85298587-.7481552-.40362068-1.4808409-.6167211-2.0686771-.78889497-.2404784-.07056306-.4683001-.13689233-.6454947-.20181034C77.0562769 1.829743 73.103149.5257377 71.7446568.34650754c-.4978326-.064918-.9928525-.09878828-1.4724031-.09878828-.9112867 0-1.7902283.1199572-2.6129177.35422654-1.5919391.45583735-2.6762015 1.4380751-3.5481116 2.22697007l-.0196883.01693514c-.0984415.09032072-.1940704.17217386-.2868866.2512045-.5526785.47418373-1.3078652 1.12336385-2.0039869 2.32152455-.509083.87780443-.880348 1.7866566-1.2080174 2.58825292l-.0787532.19334278c-.3375136.8241765-1.5595941 4.38478835-1.8000725 5.52790985-.1814136.8679256-.3614208 1.8064143-.4528307 2.7900633-.0998478 1.0612683-.0225009 4.5626072.0956288 5.5716589.0900036.7634923.2643857 1.5594436.4176731 2.2608404.0464081.2074553.0900036.4092657.1307865.6011972.2236028 1.081026 1.1475462 3.8188726 1.719913 5.2174324.1982892.4868851.4275172.9271986.6497137 1.3533994.1884451.3612829.3656397.7028081.5006451 1.0288094.105473.254027.2193839.5969635.3403262.9582463.1617253.4840626.3445452 1.0330432.5779921 1.5876688.210946.5009977.7594056 1.707626 1.2909895 2.8747389.3529829.7761936.7186226 1.57779.8508155 1.8812111.2475099.5701495.5062704 1.0866711.7354983 1.5425084.1561001.3133.3037623.6082536.4176731.8594581.2123523.4727724.596274 1.2743688 1.0069156 2.1168917-.4050163-.0733856-.8212831-.1114897-1.2389562-.1114897-.9844146 0-1.8056977.2032216-2.4047843.3514041-.0829721.0197576-.1645379.0395153-.2461037.0592729-1.1503588.2723734-2.8294889.8086527-4.1078217 2.3314034-.1153171.1354811-.2207901.2723734-.3248568.4092657-.0604712-.2822522-.1153171-.5503918-.1490685-.7818386-.0450018-.3090662-.0759406-.659059-.1082856-1.0302206-.0379703-.4360797-.0759406-.8876833-.1462559-1.3731571-.0450018-.3175338-.137818-.8834495-.2545415-1.6003702-.1631316-.9963503-.4359551-2.6658722-.4767379-3.0878393-.0660965-.6985743-.1335992-1.4663003-.210946-2.4160791-.0239073-.2963648-.0759406-.9173197-.1364118-1.6285953-.1040667-1.2348535-.2348532-2.7717169-.2714172-3.2811822-.0239072-.3090662-.0632838-.9794152-.1082856-1.7302061-.0956288-1.5919026-.1673505-2.7590155-.2165712-3.2811821-.0281261-.2963649-.0435955-.6223662-.0618775-.9681252-.0239072-.475595-.050627-1.0146967-.1153171-1.5735562-.0998478-.8665143-.2221965-1.718916-.3403262-2.5501488-.087191-.599786-.2095397-1.1642905-.316419-1.6638769-.0689091-.3133-.1321929-.6096648-.1814136-.8848607-.1617252-.9032072-.8817542-4.2253159-1.1348894-5.1412243-.2643857-.9540126-1.5089671-4.44123882-2.0293005-5.44605675-.5020515-.97094766-1.1278579-2.1789872-2.2599348-3.13441098-1.21083-1.02316432-2.664951-1.51992824-4.4467415-1.51992824-.054846 0-.109692 0-.1659442.00141126-1.2530192.0211689-2.5060384.34293645-3.829373.983649-1.0280101.49958644-2.3415005 1.25037736-3.3666981 2.6432921-.6722145.91308596-.9872272 1.8487521-1.2403624 2.599543-.0759406.2300356-.1490685.4459585-.2193838.6181324-.09141.2300356-.210946.4882963-.3375136.762081-.265792.5786171-.5681479 1.2334422-.7987822 1.9927007-.2686046.8820382-.5315839 1.6878683-.7833128 2.3934989-.0450018.1284248-.0970352.2667284-.1532874.416322-.2193839.5913185-.5217398 1.3999711-.7790939 2.366685-.137818.5179328-.2489163 1.048567-.3586082 1.562266-.0773469.3641054-.1561.7423234-.24751 1.1191301-.1968829.8241765-.367046 1.5368634-.5723668 2.4527719-.1265676.5630932-.2629793 1.2094508-.3937658 1.8416957-.068909.3260014-.1350055.6463576-.1996956.9483675-.1125045.5221666-.2418847 1.2503774-.3684523 1.9531854-.0956288.5362793-.1954766 1.0894936-.2686046 1.4451314-.192664.95119-.71581 3.8047601-.8451902 4.5160357-.0717217.389508-.1589127.7874837-.2432911 1.172758-.105473.4840625-.2165712.983649-.298137 1.4874692-.1251613.7677261-.2953244 2.2693079-.4457992 3.5944821-.0857847.7649035-.1673505 1.4874692-.210946 1.7951242-.0407829.292131-.0815658.6011972-.1223487.9173197-.0815658.6280112-.1673505 1.2786026-.2587604 1.8205269-.0773469.448781-.1335991.8481679-.1898514 1.2362647-.0604712.4191446-.1167234.815709-.192664 1.2348535-.160319.880627-.7636245 4.4920442-.9028489 5.4517018-.0534396.3753954-.3093874 1.58908-.4950199 2.475352-.243291 1.1515891-.3951722 1.8783886-.4556433 2.286243-.0829721.5503919-.1954767 1.2757801-.3332947 2.0068134-.0942226.5052315-.1996956 1.0132855-.3107938 1.5481534-.0126567-.5913184-.0520333-1.1628791-.0956288-1.6779895-.0435955-.5264004-.1898514-1.7626651-.3768902-3.3235199-.0773469-.6505914-.1448496-1.2080396-.1701631-1.4465427-.1167235-1.0951386-.3782965-4.0545532-.3867343-4.6232915-.0112505-.7592584.0717216-6.5637755.0984414-7.355493.0098442-.2977761.0618775-1.399971.1167235-2.567084.119536-2.5642615.2053207-4.4214811.2137586-4.9549378.0042189-.286486.0112504-.853813.018282-1.518517.014063-1.2715463.0337513-3.0130425.0520333-3.545088.018282-.546158-.0014063-1.0598571-.018282-1.5128719-.0154693-.378218-.0281261-.7352671-.0168756-1.0330432.0196882-.4995864.0885973-1.8812111.1490685-3.1047745.0421892-.8622805.0815657-1.6469417.0970351-1.999757.0239072-.5221666.018282-1.0048179.0140631-1.4705341-.0028126-.3880968-.0070316-.7550247.0084378-1.0880823.0253135-.5983747-.0014063-1.3421094-.032345-2.2029786-.0028126-.0606843-.004219-.1256023-.0070316-.1947541.6244002-.0536279 1.6313157-.1044333 2.127742-.129836.6356506-.032459 1.0083218-.0522167 1.2741138-.0762081.1420369-.0141126.2826676-.0254027.4204857-.0366928.8831605-.0747968 1.7972598-.1510049 2.66917-.48124 1.279739-.4854739 2.9110547-1.7259724 3.4201377-4.8829636.1884451-1.1657017.1786009-2.3709187-.0267198-3.58460325-.2671983-2.3201133-1.3177094-3.7031492-2.1628996-4.45817392-.9900399-.886272-2.251497-1.4705341-3.9685974-1.837462-.9408191-.20039908-2.0447698-.4134995-3.2584124-.4134995h-.0773469c-.8128452.00564504-1.5652193.1199572-2.228996.22015673-.24751.0366928-.4964263.0762081-.7453425.10584458-.738311.0874982-4.4861182.60401977-5.5014716.83264407-.3543892.07903064-.9323813.2187455-1.5891265.37680673-1.141921.27519593-2.8674592.69292922-3.4834215.79595128-.6314317.10725586-1.21083.27801846-1.719913.42761214-.3797028.11007837-.7369047.2145117-1.0251975.26672835-.68627768.1227797-4.86160207.98506026-5.90086268 1.3322305-2.1614933.7225657-3.5832693 2.5713178-3.8996883 5.0706613-.15750633 1.2348534-.27141717 3.0850168.54142806 4.885786 1.10676333 2.4541831 3.57764408 2.8493362 4.63096775 3.0186876.09984777.0155238.19969554.032459.30235592.0493941.60189924.1030221 1.35146068.2300356 2.21071403.2300356.22219645 0 .4443929-.0084676.6581515-.026814.26860457-.0211689.5906488-.0239914.930975-.026814.1096919 0 .22219644-.0014112.3389199-.0028225.02671982 1.3138841.03656397 3.7793573.0239072 4.1886231-.01546937.5518031-.01406306 1.8035917-.01265675 3.0144538.0014063.800185.0014063 1.627184-.00421892 1.972943-.0042189.3415252-.03797027.8142977-.06890902 1.2729576-.03937658.5588594-.07875317 1.1374764-.087191 1.6751669-.00562524.4007982-.00562524 1.3406981-.00703154 2.3356372-.0014063 1.1487666-.00281262 2.4485381-.01125046 2.8973191-.01546937.7324445-.0450018 1.7598426-.06890902 2.5797854l-.01265676.4374909c-.02531352.8834495-.1068793 3.831574-.1265676 4.6416379-.01265676.5221666-.01828198 1.8402845-.0225009 3.1160646-.00421892.7649035-.00562523 1.4535989-.00984415 1.7668989l-.0028126.1637063c-.00843785.7465571-.018282 1.4931143-.03234507 2.2396714-.01406306.7804274-.11812975 3.9741114-.15750634 4.7206685-.01125045.2201567-.0210946.4389022-.03234505.6576477-.02812614.5800283-.05343966 1.1275976-.09703517 1.653998-.00843784.0846757-.05343965.3387027-.0857847.5221667-.09140993.5066427-.21516492 1.1995719-.27141718 1.9715318-.05203335.7070418-.02390722 1.3802134 0 1.9743543.01125045.2822522.0225009.5489806.0239072.7761936.00281262 1.6300066.41345416 2.9311894.7594056 3.7356082 1.28677055 3.0031637 3.60295755 3.3277538 4.53955785 3.3277538.4303298 0 .8648785-.0620955 1.2909894-.1820527l.3782965-.1072558c1.4878724-.4163221 2.2500906-.6435351 2.8069881-.9286099.0759405-.038104.1321928-.064918.1715694-.0832644.0618775.0014113.4500181.0098789.4500181.0098789.1631316.0028225.3107938.0098788.4429866.0155238.2221964.0112901.421892.0183464.6047118.0183464 3.1543458 0 4.3103299-2.3709187 4.9305111-3.6438762.1265676-.2610833.2953244-.6082536.4612686-1.0245756-.0309388.6689378.0098441 1.3167066.1701631 1.9362503.5133019 1.9884669 1.2586444 2.859215 1.9772671 3.5817807 1.582095 1.5876688 4.1007901 1.7118598 4.8362885 1.7118598.3220442 0 .6258065-.0225802.9056615-.0635068 1.4470895-.2187455 6.3115041-1.1445328 8.181892-3.9204834.9169119-1.3604557 1.1953606-4.2535411 1.2670822-6.4395846.0014064-.0437491.004219-.0889094.0056253-.1326585.0210946.0014113.0421892.0028225.0646901.0042338.4922073.0352815 1.2094237.0874982 1.9744545.097377-.0168757 1.1939269-.0534397 4.4285374-.0421892 5.193441.0028126.1510049-.0014063.3005986-.0028126.448781-.0126568.7324445-.0295325 1.7344399.3403262 2.7985308.5329902 1.5382747 1.5708445 2.7604268 3.0010583 3.5309754 1.352867.7310333 3.0460602.8100639 3.7098369.8100639.3543893 0 .7073723-.0183464 1.0505111-.0564505 1.7114752-.1876977 3.4243566-.8622805 4.4706488-1.7584313 1.36693-1.1713468 1.8914824-2.3864426 2.2543095-3.5253303.2432911-.7620811.4683001-2.5727291.6004929-3.9797564.4134542.7536134.8198768 1.4352525 1.1152012 1.8219381.6398695.8411116 1.3078652 1.5792012 2.0405509 2.2594291.8269083.7691373 1.7227256 1.3491656 2.4413483 1.8148818.7805002.508054 4.2962668 2.1761646 6.0147735 2.3892651.5695542.070563 1.2544255.1425373 2.0166437.1425373.4795506 0 .930975-.0282252 1.3809931-.0860869 1.2488003-.1608837 2.3611889-.5645044 3.2865386-.9384886 1.2319246-.4995865 2.2233708-1.1967495 2.949025-1.7485526 1.0884814-.826999 3.5410801-3.8527429 4.1668866-5.1384018.0829721-.1707626.1729757-.3443477.2629793-.5193441.352983-.6844616.7523741-1.4606552 1.0125408-2.3568061.0928162-.3217675.261573-1.0753809.4289235-1.9560079.0435955.6505914.1434433 1.2263859.229228 1.7048035.1350055.7606697.3600145 2.0336273 1.2206742 3.3517452.5611163.8580467 1.9364842 2.2989443 4.8391011 2.2989443.3403262 0 .6933092-.0197576 1.0476984-.0592729.9661327-.1086671 1.8535122-.3697504 2.6354187-.6011973.1687568-.0493941.3347009-.097377.5006451-.1439486.4922073-.1397149.9281624-.2850748 1.3134904-.4134995.2067271-.0677406.476738-.1580613.6300254-.2018104 1.7170999-.097377 2.9012109-.6858729 3.7098369-1.3703345.050627.1157234.098441.2173342.142037.3034211.502051 1.004818 1.116607 2.0392724 1.684755 2.8394574.662371.9314324 1.3824 1.6144828 2.01805 2.2170913l.1561.1481824c.812846.7747823 1.711476 1.5707336 2.780269 2.1578183 1.672098.9173197 4.737847 1.940484 6.191968 2.0660863.402203.0338702.849409.0522166 1.330366.0522166 1.636941 0 4.013599-.221568 5.194896-.632245 2.486351-.8636918 4.327206-2.7745394 5.114738-3.5902483l.078753-.0804419c.458456-.475595 1.334585-1.4098499 2.030707-2.3356372.79175-1.054212 2.420253-4.2817662 2.701515-4.9224788.489394-1.1092512.805813-2.2820092 1.050511-3.2825934.268604-1.0923161.448612-2.129593.551272-3.172515.088597-.9060297.127974-1.8402845.160319-2.9650597.015469-.5546256-.004219-1.0909048-.022501-1.6088376-.014063-.4134996-.028126-.8030076-.025314-1.1925157.001407-.2427369.011251-.4882964.019689-.7380896.021094-.6209549.045002-1.3237629-.007032-2.0830214-.029532-.4389022-.082972-.8495792-.130786-1.2108621-.050627-.3993869-.099848-.7761936-.094223-1.0104629.012657-.4149108-.005625-.8566355-.030939-1.2800139.016876-.0112901.033752-.0225802.049221-.032459.241885-.1693513.475332-.3316464.669402-.475595.409235-.2949536 2.288061-1.3632782 3.19091-1.8769773.59768-.3401139 1.071606-.6082535 1.347242-.7747824.887379-.5320454 1.604595-1.1261863 2.23884-1.6511755.123755-.1030221.24751-.2046329.372671-.3062437.132193-.1086671.348764-.2639058.576586-.4304346.421892-.3062437.94785-.6872842 1.476622-1.140299.260166-.221568 3.448264-3.2769483 4.189387-4.8589721.225009-.48124.36564-.956835.442987-1.4154949l-.016876-1.3209404z"/>
    <path fill="#333" d="M32.4628561 9.6358517c-.0998478-1.00058415-.4345487-1.82052686-1.0448858-2.36668492-.5990866-.53627923-1.4639652-.83828912-2.3963465-1.03727694-.7875317-.16794007-1.6735049-.34575897-2.5932295-.33870267-.8409713.0070563-1.719913.19757656-2.596042.30200988-.8690975.10302207-4.3820515.599786-5.1555201.7733711-1.0561363.23709188-4.1668866 1.0245756-5.2497427 1.2094508-.8676912.14677115-1.7719463.5193441-2.7141718.68728417-.9408191.16935134-4.7336281.9808265-5.41709313 1.20945078-.930975.3118887-1.43021384 1.0796148-1.57506342 2.2312039-.12094238.9455449-.17719464 2.0533849.26297934 3.0271551.32626312.7253882 1.15176512.891917 2.0391446 1.0330431.71299747.1143122 1.52162378.2893086 2.352751.221568.81706415-.0663292 1.6594418-.0084675 2.3836897-.0832644 1.1362958-.1171346 2.2247771-.3429364 2.3738456-.0889094.1490685.2526157.1293802 1.5354521.1982893 2.6559934.0520333.8382892.0703153 4.6430492.0534396 5.2174324-.0253135.8707482-.0028126 4.0630209-.0154693 4.939414-.0140631.8749819-.1448496 2.0660863-.1561001 2.9410682-.0126567.8763932-.0028126 4.3833771-.0210946 5.2555365-.0168757.8792157-.0562522 2.1761646-.0815658 3.0469128-.0253135.8806269-.105473 3.8174613-.1251613 4.626114-.0196883.8058301-.0225009 4.0362068-.032345 4.8434482-.0098442.8072413-.0196883 1.6144827-.0351577 2.4217241-.014063.8072413-.119536 4.0333843-.1617252 4.8392144-.0421892.8058301-.0703154 1.6130715-.1364118 2.4174903-.0435955.5461581-.279855 1.4465427-.3557956 2.4612394-.0590648.8058302.0323451 1.6878684.0337514 2.4908759.0014063 1.0132855.2531352 1.8473409.4795506 2.3779751.3557955.8284102.9028488 1.4225512 1.738195 1.1854593.8226893-.2314468 2.1910257-.6011972 2.5580717-.788895 1.036448-.5292229 1.4049004-.4614824 2.2360276-.448781 1.5427183.0239914 1.8478869.351404 2.8337078-1.6737557.3150127-.6449463.6651831-1.4112611.7214353-2.2664854.0492208-.7493797.0014063-1.5763787-.0660964-2.38362-.0675027-.7931288-.4668938-4.0093929-.5400217-4.6938546-.0885973-.8284103-.3951722-4.1138262-.4064226-4.9408252-.0112505-.8298215.0717216-6.6936116.101254-7.5220218.0281262-.8284103.3136064-6.6089359.3276695-7.4627489.0140631-.8552243.0435955-4.2704762.0717216-5.1242892.0295325-.853813-.0675027-1.7118598-.0337513-2.5656727.0337513-.853813.2081333-4.2662424.2461036-5.1214667.0393766-.8524017-.0154693-1.7005697.0225009-2.5557939.0506271-1.1544116-.1898514-3.8950807-.0154693-4.9704617.0815657-.4967639 1.8267923-.4473698 2.1530554-.5715608.5048641-.1905202 3.6409279-.2808409 4.3483001-.345759.8522218-.0790306 1.6749112-.1157234 2.1868068-.3090661.7115912-.2695509 1.0744183-1.1685243 1.2417688-2.2058012.1167234-.729622.1335991-1.5975476-.0393766-2.5487376M57.1418499 64.1953483c.0379703-.8340554-.2334469-1.6554094-.2657919-2.464062-.0323451-.8439341.0028126-1.6666994-.0801595-2.4612394-.0900036-.8552243-.3501703-4.1858005-.4795505-4.9210676-.1715695-.9780039-.6440885-4.031973-.7481552-4.8293356-.1068793-.8072413-.330482-1.5933138-.4472055-2.3878538-.1181297-.8058301-.142037-1.6201278-.2559478-2.4146678-.1153171-.8058301-.6708083-4.0192717-.7495614-4.847682-.0787532-.8157089-.1490685-1.6398854-.2165712-2.4668845-.0660965-.8185314-.3487641-4.1095924-.4106416-4.9351802-.0604712-.8213539-.2390721-4.1180599-.3178253-4.9408252-.0773469-.821354-.0759405-1.6511755-.1701631-2.4711182-.0942225-.8199427-.210946-1.6384742-.3276694-2.4541831-.1181298-.8185315-.3332947-1.6187166-.4795506-2.4301917-.1448496-.8128864-.843784-4.0333843-1.0631678-4.8265131-.2306343-.8312328-1.3978688-4.0672546-1.7663211-4.7799414-.4289236-.82699907-.825502-1.58061252-1.4231824-2.085844-.6497136-.5489806-1.4133381-.7225657-2.3415005-.70704183-.7144038.0112901-1.4681841.19334277-2.389315.64071255-.8198767.39797564-1.5610003.85804677-2.0982095 1.58625752-.5104893.69434046-.6904965 1.60460386-1.0350416 2.45982816-.3318884.8227652-.7776876 1.6173053-1.036448 2.4668845-.2714172.8947395-.5540848 1.7626651-.8339399 2.5501488-.2207901.6181324-.5695542 1.4648891-.8480029 2.5120448-.2053207.7705486-.3586082 1.6539981-.5822109 2.5854304-.1954766.8171202-.3642334 1.5199283-.5653353 2.4146678-.1884451.8439342-.3979848 1.8797999-.5850235 2.7547818-.1842262.8636918-.4542371 2.5049885-.6300254 3.367269-.178601.880627-.6820587 3.6227074-.8325335 4.4454726-.1729758.95119-.4022037 1.8191156-.5287713 2.5953092-.1842262 1.1290089-.5203335 4.4158361-.6454948 5.3119869-.123755.8905058-.2461036 1.9517742-.3979848 2.8408687-.1504748.8876833-.2278216 1.6243616-.3895469 2.5092223-.1603189.8905058-.752374 4.44265-.8803479 5.328922-.1307866.8989734-.8480029 4.0658434-.9548822 4.7799415-.1068793.7140981-.2193839 1.4183174-.352983 2.1324156-.1335991.7056305-.2826676 1.4070273-.4303298 2.1211255-.1870388.9060296-.6286191 2.6799848-.3881407 3.6100059.3192316 1.2348535.6637768 1.5890801 1.0814498 2.0068134.582211.5842621 2.1389924.7747823 2.7985502.675994 1.3500544-.2032216 4.9094165-1.054212 5.8432041-2.4400705.4345487-.6449463.6539326-3.8583879.6792461-4.6218802.0267198-.8284103.1335991-3.1047745.2840739-3.3235199.1842262-.2667284 1.2262994-.1862865 2.8744908-.1679401.3600145.0042338 1.5159985.1312473 2.6565132.1256022 1.1644219-.005645 2.9096484-.0338702 3.003871.1270135.1476622.2526158.1209424 2.0547962.1040667 3.2204979-.018282 1.1896932-.054846 4.5357933-.0450018 5.2484802.0112504.7733711-.0745343 1.5213395.1462559 2.1606408.2362595.6788166.6722145 1.2419098 1.3823994 1.6257728.5301776.286486 1.6608481.4826513 2.756361.3626941 1.0842624-.1199572 2.141805-.5503918 2.6129177-.9526012.756593-.6491802.9886336-1.2546112 1.2122363-1.9531854.1940703-.6110761.5386155-3.7384308.5568974-4.6839757m-9.4166292-11.9731395c-.7551866.189109-3.7773396.091732-4.5887785.0183464-1.1123886-.1001996-2.3499384.0508054-2.4694745-.2751959-.137818-.3753955.2643857-2.0195147.2967307-2.9834061.0323451-.9257873.2250091-3.1767488.3768902-4.3833771.0942226-.7536134.0956289-1.6370629.2207902-2.5826078.105473-.8086527.4092352-4.2902339.5358028-5.1581595.123755-.853813.3572019-1.7005696.4879884-2.5487376.1350054-.8721594.2756361-1.7330286.4148604-2.5600277.1518812-.8961508.8100327-4.2507185.9872273-4.9746955.3389199-1.3886809.7720623-2.8013533 1.0575426-2.7773619.2250091.0197577.4331424 1.4338413.5878362 2.9636484.087191.859458.5723668 6.7740534.6848713 8.1345092.0632838.7733711.3304821 4.3706757.4007974 5.2809391.0675027.8735707.2911055 1.7527864.3557956 2.6291795.0675027.9060297.2011018 1.7570201.2587604 2.599543.0646901.9610689.1603189 1.772544.2053207 2.555794.0689091 1.2320309.5976804 3.9585874.1870388 4.0616095M71.4358318 23.6548964c-.2362595-.6223661-.6792461-1.7697214-.7917506-2.8309898-.087191-.8185315-.0450018-3.4110182.210946-4.2690649.2545415-.848168.8367524-2.5430926 1.334585-3.2811822.4837695-.7169206.981602-1.2447323 1.7452265-1.7640764.8662849-.5899071 1.7916347-.1707626 2.1825879.5630932.5386154 1.010463.1954766 3.8231064.0154694 4.664218-.1687568.7931288-.7129975 1.5537986-.7819065 2.3257584-.0773469.8651031.3361073 1.6173053.701747 2.2918881.174382.318945.7059659.7733711 1.3767742 1.1755805.6370569.383863 1.2572381.8834495 1.6749112.9144972.8465966.0635068 1.4569337-.2893085 1.9575788-.670349.5484596-.4163221.9464444-.978004 1.1672345-1.6906909.2039145-.6576477.4626749-1.3858584.4612686-2.0929002-.0014063-.7747824.0168757-1.5693224.0168757-2.3695075 0-.7888949-.1195361-1.5862575-.160319-2.3709187-.0421892-.800185-.0056252-1.615894-.1321928-2.3822088-.1307865-.79454-.3979848-1.5693223-.6679956-2.29612183-.3136064-.83970038-.8030011-1.4888805-1.2952085-2.03644982-.5470532-.6096648-1.1672345-1.13183143-1.8746067-1.51287193-.683465-.36975042-1.4977166-.50664275-2.2711852-.7917175-.7312795-.26955088-4.1767307-1.35198816-5.0092642-1.46206653-.9380066-.12277973-1.8535122-.0874982-2.6930772.1524162-.8325336.23850312-1.4920914.84111163-2.2079014 1.48746922-.6018993.54615806-1.1180138.8792157-1.6228779 1.7471413-.4232983.729622-.7453425 1.5467422-1.0772309 2.35680608-.3276694.7973625-1.4442769 4.1110037-1.6158463 4.9267126-.1673505.7987738-.3206379 1.6074264-.3951722 2.3991439-.0745342.8086527-.0042189 4.0489082.0885973 4.8490933.0928163.7973625.334701 1.7711327.4992389 2.561439.1617253.7860724.9886336 3.2741258 1.5342805 4.6105901.2896992.7084531.7734687 1.4733566 1.1433273 2.3624511.3192316.7677261.5611164 1.6991584.9112867 2.5318025.3361073.7987738 1.7916347 3.9501199 2.1263357 4.717846.3782964.8693368.8128452 1.648353 1.1348894 2.3610398.476738 1.0584459 1.9828924 4.112415 2.4286916 4.9591717.4570496.8693368.7495614 1.8007692 1.1222327 2.6898637.3754838.891917.697528 1.7880678.9253497 2.7449029.1448496.6110761.9633201 3.7525433 1.0308228 4.534382.0675027.7973626-.1125045 3.3954943-.8550344 4.4807541-.5653353.8255878-.9323813 1.1967495-1.8661689 1.1275977-1.141921-.0846757-1.8408554-.9427225-2.1586807-1.8600422-.3923596-1.1290089-.24751-2.4852309-.2446974-2.9198993.0028126-.5786171.1279739-1.4804129.1026604-2.4894646-.0196883-.7931288-.2348532-1.6384742-.3881406-2.4612395-.1589127-.8552242-.4303299-1.6314178-.8465966-2.2890655-.4443929-.7056306-.9731642-1.3533994-1.8506996-1.5523873-.9900398-.2258017-1.8521058.0508054-2.628387.2342694-.930975.2201567-1.70585.5292229-2.2669663 1.1967494-.5526785.6576477-1.0631679 1.4493652-1.1911418 2.3963214 0 0 .1110983 4.0559645.2306343 4.9732843.0984415.767726.3923596 1.556621.5948677 2.4062002.1842262.7761936.4612686 1.5425084.756593 2.3441047.279855.756436 1.7789779 3.6579889 2.2908735 4.3297492.4879884.6407126 1.0209786 1.2447323 1.6439725 1.8219381.5850235.5447468 1.2544255.9850603 1.9716419 1.4507765.665183.4304346 3.6592098 1.7485525 4.5676839 1.8600421.8156579.1016108 1.6580355.1721739 2.5411961.059273.8240957-.1058446 1.6158463-.383863 2.4357231-.7155094.7678434-.3104774 1.4499021-.7592585 2.160087-1.2997715.6511199-.4939414 2.752142-3.0779605 3.1543457-3.902137.3642335-.7507909.8381588-1.5523873 1.0617616-2.3257584.2292279-.7888949.8015947-3.9120158.7790938-4.7418374-.0210946-.8015963-.1434433-1.6342404-.2629793-2.4612394-.1153172-.7917175-.5793983-1.5354521-.7734687-2.3497498-.1856324-.7776049-.40361-1.5552098-.6511199-2.3539836-.2376659-.7649035-.5259587-1.5213395-.8142516-2.3060006-.2770424-.7522022-.5990866-1.4973481-.9155056-2.2678967-.3037622-.7437346-1.559594-3.7595997-1.9055455-4.5132131-.3361073-.7324445-.6820587-1.4733566-1.0350417-2.221325-.3431388-.7324445-.6933091-1.4705341-1.0476984-2.2170913-.3473577-.7324445-.4936136-1.5679111-.8465966-2.3144682-.3459514-.7338558-.7129975-1.4648891-1.0603552-2.2128575-.3417325-.7366783-.7720623-1.4380751-1.1109822-2.188866-.3332947-.7423234-.5751794-1.5298071-.9000363-2.2848318-.3220442-.7479684-.5822109-1.524162-.8930047-2.2848317-.3079811-.7550248-.6792461-1.486058-.9717579-2.2537841M109.20079 9.50714468c.227822-.5447468.511896-1.4056161.440174-2.2255588-.073128-.84816795-.445799-1.70621472-.821283-2.13806062-.405016-.46289365-1.386618-.75361345-2.35697-.81288642-.926756-.0578617-1.863356.15523873-2.43291.14959368-.936601-.00987882-1.894295-.18205268-2.812614-.1961653-.928162-.0141126-1.8506991-.02963648-2.7788615-.0465716-.9183183-.01552388-1.843668.04939413-2.7802682.03387026-.9112867-.01552388-1.8324176.1707626-2.7774556.15806124-.5414281-.0070563-1.4175571-.13265854-2.3597826-.15382746-.7833128-.0183464-1.5989706.0141126-2.3358753.14394864-.9000362.15806124-1.61444.4318459-1.9589851 1.04997828-.2278217.410677-.7523741 1.1473553-.8873795 2.07173134-.1040667.70986435.1504748 1.54533094.243291 2.280598.0998478.78324988.302356 1.46347778.7706561 1.99552328.5104893.578617 1.6622544.5645044 2.8716781.4445472 1.1391084-.1143121 3.4890468-.3570491 3.8406234-.1383036.2545415.1580613.123755 1.172758.3192316 2.3017669.1167235.6802279.1181298 1.5142832.1490685 2.4513606.0253136.7451459.018282 4.0446744-.0239072 4.9027212-.0379702.7832499-.1448496 1.8021805-.1996955 2.6475259-.050627.7903062-.3389199 3.8400415-.4007974 4.6698631-.0604712.8015963-.0914099 1.6695219-.1532874 2.4951097-.0604712.8058301-.0210946 1.5848462-.0801595 2.4062002-.0576586.8058301-.2334469 1.8741548-.2840739 2.6898637-.0492208.8100639-.5667416 6.2236616-.6018993 7.0294917-.0351576.821354.0421892 3.9275398.0126568 4.7263136-.0309388.8312328-.0407829 1.805003-.0703154 2.5981317-.0295324.8368779-.2995433 4.0926573-.3318883 4.8688509-.036564.8622806-.3192316 3.9642325-.3811091 4.5993001-.0787532.7973625.0464081 1.5114606.1701631 2.2072124.1110982.6294224.2348532 1.3491656.7144038 2.0830214.4401739.6731716 1.5370931.8241765 2.6283871.7013968.8423776-.0945545 1.7283508-.3965644 2.5876042-.63789 1.1067633-.3133 2.0377383-.7169207 2.5566654-.7338558 1.2234867-.0395154 1.9196087-.4657162 2.2725917-1.1445328.341732-.659059.448612-1.5269846.390953-2.5755516-.046408-.8157089-.27423-1.713271-.341732-2.6517597-.060472-.8622805-.115318-1.7118597-.164538-2.5501488-.052034-.8594581-.082972-1.7104485-.123755-2.5529714-.040783-.8566355-.11813-1.7048035-.150475-2.5515601-.032345-.8524018-.056252-1.7033922-.08016-2.5543827-.023907-.8481679.063284-1.7019809.046409-2.5557939-.016876-.8453454-.081566-4.0347956-.087191-4.8970761-.007032-.8382892-.071722-1.9179039-.075941-2.783007-.002813-.8368779.088597-1.8628647.087191-2.729379-.001406-.8354666.02672-1.4931143.02672-2.3610399 0-.8072414-.047815-3.6579889-.066097-4.4567627-.018282-.8015963-.067502-1.9390728-.09141-2.7406691-.023907-.7987738-.090003-1.6074264-.118129-2.410434-.028126-.7973625-.187039-2.9467133-.216572-3.7539546-.021094-.5743833-.135005-2.2947106-.16735-3.0582029-.032345-.7634923-.251729-2.9198993-.251729-3.4942826 0-.4868851 1.198173-.3344689 2.597448-.3711616.850816-.0225802 1.649598-.1792302 2.358377-.2173343.895817-.0465716 1.732569.053628 2.351344-.2554382.652527-.3245901 1.047699-1.037277 1.32896-1.95741922M145.592912 30.4365707c-.340326-.9215535-.728467-1.512872-1.155984-1.9701206-.630025-.6745828-1.193954-.8354666-1.96461-.7395008-.684872.0846757-1.333179.3993869-2.085553.8721594-.620181.3895081-1.334585.7409121-1.974455 1.2673125-.59768.4911188-1.219268.9921166-1.816948 1.5058156-.615962.5306342-1.115201 1.1925157-1.711475 1.6469417-.68909.5278117-1.448496.8763932-2.08274 1.1558229-1.110982.4882964-2.268373 1.167113-2.268373 1.167113-.295324-.2088667.01547-2.3412822.122349-3.0624367.092816-.6209549.230634-1.680812.438768-2.7576042.157506-.821354.331888-1.5354522.51752-2.4358368.184227-.9017958.382516-1.8177043.556898-2.637647.226415-1.069736.33892-1.9108476.476738-2.5247462.135005-.5983747.271417-1.4197287.507676-2.3539836.181414-.7183319.315013-1.529807.506271-2.3610398.177194-.7649036.340326-1.5650886.490801-2.3652737.149068-.8015963.225009-1.6384742.315013-2.4174903.097035-.8453454.133599-1.6398855.118129-2.3864426-.019688-.91308595.056253-1.80218046-.203914-2.44430428-.329076-.8128864-1.061762-1.3576332-1.922421-1.48605797-.933788-.1411261-1.773353-.2102779-2.442755-.064918-.878942.19052024-1.390837.88344946-1.905545 1.44372013-.524553.57156076-1.049105.83264407-1.303647 1.63847417-.23204.7409121-.106879 1.27860255-.201102 2.09572275-.094222.8114752-.246103 1.5919026-.28548 2.366685-.046408.8933283-.171569 2.6757511-.254541 3.4956938-.08016.8015963-.514709 3.0186876-.65112 3.8132276-.137818.8058301-.26298 3.2444893-.45705 4.3537406-.111098.6393013-.205321 3.0356227-.822689 3.8767343-.541428.7366783-1.465372 1.0894936-2.548228 1.1332427-1.049105.0437491-1.811323-.5052315-2.545415-1.0626796-.565335-.4304347-.583617-2.2128575-.625806-3.4096069-.029533-.8524018.16735-1.8007692.284074-2.777362.112504-.9540125.112504-1.9320164.27001-2.794297.220791-1.1981607.33892-2.2255588.431737-2.7717169.087191-.5193441.712997-3.6763352.880348-4.4525288.160318-.7380896.516114-1.4521877.660964-2.177576.158912-.8015963.23204-1.621539.333294-2.28765427.177195-1.1685242.270011-2.00116828.084379-2.20862367-.471113-.52216662-1.343023-.8820382-2.300718-.9808265-.81847-.08608692-1.655223.24555945-2.439942.49253015-.87191.27378467-1.763508.51369906-2.124929 1.22497467-.149069.2907198-.496427 1.13183143-.765031 2.34833853-.151881.6872842-.745343 3.9585875-.888786 4.8081667-.130786.7719598-.634244 4.0122154-.743936 4.8293356-.108286.8044188.021095 1.6455305-.071722 2.4527718-.094222.8171202-.208133 1.6412967-.281261 2.4386593-.075941.8340553-.254542 1.6285953-.30095 2.4132565-.050627.8566355-.147662 4.1843893-.082972 4.9013099.095629 1.037277.348764 1.8727435.632838 2.377975.378297.6759941.784719 1.3491657 1.248801 1.8586309.510489.5602707.926756.8439342 1.544124 1.193927.625807.3542265 1.583501.7522022 2.323219.8792157.163131.0282252 1.084262.2102779 2.326031.4177332.786125.1312473 1.510373.1453599 2.295092.2723734 1.350055.2201568 3.545299-.0889094 3.539674-.1199571.025314.1326585-1.59897 1.2362647-2.752142 1.8332282-.631432.3260013-1.358492.6872841-2.088365 1.0415107-.725654.3528153-1.463965.6872842-2.110867.9935278-1.035041.4882964-1.843668.9046184-2.096803 1.0203418-.743936.3372914-1.483653.6618815-2.209307 1.0005842-.741124.3457589-1.513186.6844616-2.212121 1.0725584-.712997.3951531-1.276926.8933283-1.923827 1.3759796-.642682.4798288-1.696006 1.3999711-2.250091 2.0096359-.580804.6393013-1.807104 3.1386447-2.027894 3.9896352-.212352.821354-.37689 1.6723445-.444393 2.5487376-.066096.8495792-.268604 1.7330287-.206727 2.6051881.060471.8566355.243291 1.7302061.417673 2.5811966.174382.8467567 1.269895 3.9924577 1.65241 4.75595.393766.7860725.922538 1.6949246 1.411932 2.3836201.513302.7225657 1.133483 1.2884814 1.742414 1.8670984.641276.6110761 1.324741 1.2277972 2.061646 1.6328292 1.372555.7536134 3.98266 1.5806124 4.834882 1.653998 1.704444.1467712 4.356738-.1411261 5.106299-.4022094 1.791635-.6223662 3.275288-2.2199138 3.851874-2.815466.566742-.5842621 1.258645-1.3519881 1.750852-2.0068133.496426-.6604702 1.982892-3.512629 2.30353-4.2394284.382516-.8693369.644089-1.8473409.856441-2.7124439.210946-.8608693.374077-1.7358512.466894-2.68563.082972-.8439341.118129-1.7414962.144849-2.723734.023907-.8411116-.056252-1.74573-.047814-2.7322015.005625-.821354.080159-1.6878683.021094-2.5557939-.059064-.8608693-.254541-1.7245611-.23204-2.5557939.023907-.8905058-.165944-2.3455161-.082972-2.6616385.120942-.4671275 1.420369-1.2546112 2.167118-1.8092368.748155-.5546256 4.026256-2.3610399 4.812382-2.8338124.819876-.4925301 1.508967-1.1050174 2.213526-1.6779895.506271-.4120882 1.271301-.9017958 1.984299-1.5128719.603305-.5165216 2.986995-3.0130425 3.310446-3.701738.372671-.7973625.1561-1.6398854-.123755-2.4231353m-20.274723 25.8909967c-.101254 1.0584459-.217978 1.9207264-.448612 2.6898638-.243291.8185314-.589242 1.6046039-1.050511 2.5148673-.400797.7917175-.950663 1.4931143-1.548343 1.9517741-.644089.4939414-1.504749.6731716-2.340095.7578473-.735498.0747968-1.541312-.0465716-2.396346-.3062437-.845191-.2582608-1.638347-.5503918-2.127742-1.075381-.544241-.5828508-.803001-1.4154949-.960508-2.1987448-.149068-.7409121-.345951-1.5735562-.14063-2.3652737.417673-1.6046039 1.65241-3.8499204 2.1854-4.4214811.393766-.4219671 1.049105-1.1445328 1.795854-1.7175048.589242-.4530148 1.115201-.8792157 1.78179-1.3223517.684872-.4544261 1.421776-.8905058 2.056021-1.237676.914099-.4995865 2.951837-2.0364498 3.095281-1.5904913.319231.9864715-.092817 1.1501778.078753 3.5817808.045002.6322449.042189 1.3294079-.005626 2.3822087-.032345.718332.116724 1.4027936.025314 2.3568061"/>
  </g>
</svg>
