<?xml version="1.0" encoding="utf-8"?>
<!-- Generator: Adobe Illustrator 19.1.0, SVG Export Plug-In . SVG Version: 6.00 Build 0)  -->
<svg version="1.1" id="Layer_1" xmlns="http://www.w3.org/2000/svg" xmlns:xlink="http://www.w3.org/1999/xlink" x="0px" y="0px"
	 viewBox="-333 507 101 11" style="enable-background:new -333 507 101 11;" xml:space="preserve">
<style type="text/css">
	.st0{opacity:0.7;}
	.st1{fill:#FFFFFF;}
	.st2{enable-background:new    ;}
</style>
<title>buzzfeed brand lockup</title>
<desc>Created with Sketch.</desc>
<g id="footer-lg" transform="translate(-121.000000, -84.000000)" class="st0">
	<g id="buzzfeed-brand-lockup">
		<g transform="translate(120.000000, 80.000000)">
			<g>
				<path id="BuzzFeed_on_Red" class="st1" d="M-322.2,521.3v-9.8h4.3c1.8,0,2.8,1.2,2.8,2.5c0,1.2-0.7,2.1-1.7,2.3
					c1,0.2,1.8,1.2,1.8,2.4c0,1.5-1,2.7-2.8,2.7L-322.2,521.3L-322.2,521.3z M-317.2,514.4c0-0.6-0.4-1-1.1-1h-1.8v2.1h1.8
					C-317.7,515.4-317.2,515-317.2,514.4z M-317,518.4c0-0.6-0.4-1.1-1.2-1.1h-1.9v2.2h1.9C-317.5,519.5-317,519.1-317,518.4z
					 M-314.2,518.5v-4.3h1.8v4.2c0,0.8,0.5,1.5,1.5,1.5s1.5-0.6,1.5-1.5v-4.2h1.8v4.3c0,1.8-1,3-3.3,3
					C-313.1,521.5-314.2,520.2-314.2,518.5z M-306.8,521.3v-1.4l3.1-4.1h-3.1v-1.6h5.6v1.3l-3.2,4.1h3.3v1.6L-306.8,521.3
					L-306.8,521.3L-306.8,521.3z M-300.3,521.3v-1.4l3.1-4.1h-3.1v-1.6h5.6v1.3l-3.2,4.1h3.3v1.6L-300.3,521.3L-300.3,521.3
					L-300.3,521.3z M-293.7,521.3v-9.8h6.7v1.8h-4.6v2.1h3.5v1.8h-3.5v4.1H-293.7L-293.7,521.3z M-287.5,517.8
					c0-2.1,1.5-3.7,3.6-3.7s3.5,1.6,3.5,3.9v0.4h-5.2c0.1,0.9,0.8,1.6,2,1.6c0.6,0,1.4-0.3,1.8-0.7l0.8,1.2c-0.7,0.6-1.8,1-2.9,1
					C-285.9,521.5-287.5,520-287.5,517.8z M-283.9,515.6c-1.1,0-1.6,0.8-1.7,1.5h3.4C-282.2,516.4-282.7,515.6-283.9,515.6z
					 M-279.7,517.8c0-2.1,1.5-3.7,3.6-3.7s3.5,1.6,3.5,3.9v0.4h-5.2c0.1,0.9,0.8,1.6,2,1.6c0.6,0,1.4-0.3,1.8-0.7l0.8,1.2
					c-0.7,0.6-1.8,1-2.9,1C-278.1,521.5-279.7,520-279.7,517.8z M-276.1,515.6c-1.1,0-1.6,0.8-1.7,1.5h3.4
					C-274.5,516.4-274.9,515.6-276.1,515.6z M-271.8,521.3v-7.1h2.8c2.2,0,3.8,1.3,3.8,3.6c0,2.2-1.6,3.6-3.8,3.6L-271.8,521.3
					L-271.8,521.3z M-267,517.8c0-1.1-0.7-2-1.9-2h-1.1v4.1h1.1C-267.7,519.8-267,518.8-267,517.8z"/>
			</g>
		</g>
	</g>
</g>
<g class="st2">
	<path class="st1" d="M-261.3,517.3v-7.8h0.9v3c0.5-0.6,1.2-1,2-1c1.5,0,2.6,1.2,2.6,3s-1.1,3-2.6,3c-0.8,0-1.5-0.4-2-1v0.8H-261.3z
		 M-258.6,516.6c1.2,0,1.9-0.9,1.9-2.2s-0.7-2.2-1.9-2.2c-0.7,0-1.4,0.4-1.7,0.9v2.6C-260.1,516.2-259.4,516.6-258.6,516.6z"/>
	<path class="st1" d="M-254.4,517.3v-5.7h0.9v0.9c0.5-0.6,1.1-1,1.9-1v0.9c-0.1,0-0.2,0-0.4,0c-0.6,0-1.3,0.4-1.6,0.9v4
		L-254.4,517.3L-254.4,517.3z"/>
	<path class="st1" d="M-246.8,517.3v-0.6c-0.5,0.5-1.1,0.8-1.9,0.8c-1,0-2-0.6-2-1.9c0-1.3,1-1.9,2-1.9c0.8,0,1.5,0.2,1.9,0.8v-1
		c0-0.8-0.6-1.2-1.5-1.2c-0.7,0-1.3,0.2-1.8,0.8l-0.4-0.6c0.6-0.6,1.4-0.9,2.3-0.9c1.2,0,2.2,0.5,2.2,1.9v3.9L-246.8,517.3
		L-246.8,517.3z M-246.8,516.1V515c-0.3-0.5-1-0.7-1.6-0.7c-0.8,0-1.4,0.5-1.4,1.2s0.6,1.2,1.4,1.2
		C-247.8,516.8-247.1,516.6-246.8,516.1z"/>
	<path class="st1" d="M-240.2,517.3v-3.7c0-1-0.5-1.3-1.3-1.3c-0.7,0-1.4,0.4-1.7,0.9v4.2h-0.9v-5.7h0.9v0.8c0.4-0.5,1.2-1,2.1-1
		c1.2,0,1.8,0.6,1.8,1.8v4H-240.2z"/>
	<path class="st1" d="M-233.3,517.3v-0.8c-0.4,0.6-1.1,1-2,1c-1.5,0-2.6-1.1-2.6-3c0-1.8,1.1-3,2.6-3c0.8,0,1.5,0.4,2,1v-3h0.9v7.8
		H-233.3z M-233.3,515.8v-2.6c-0.3-0.5-1-0.9-1.7-0.9c-1.2,0-1.9,0.9-1.9,2.2s0.7,2.2,1.9,2.2C-234.3,516.6-233.6,516.2-233.3,515.8
		z"/>
</g>
<g class="st2">
	<path class="st1" d="M-328.7,517.3v-0.6c-0.5,0.5-1.1,0.8-1.9,0.8c-1,0-2-0.6-2-1.9c0-1.3,1-1.9,2-1.9c0.8,0,1.5,0.2,1.9,0.8v-1
		c0-0.8-0.6-1.2-1.5-1.2c-0.7,0-1.3,0.2-1.8,0.8l-0.4-0.6c0.6-0.6,1.4-0.9,2.3-0.9c1.2,0,2.2,0.5,2.2,1.9v3.9L-328.7,517.3
		L-328.7,517.3z M-328.7,516.1V515c-0.3-0.5-1-0.7-1.6-0.7c-0.8,0-1.4,0.5-1.4,1.2s0.6,1.2,1.4,1.2
		C-329.6,516.8-329,516.6-328.7,516.1z"/>
</g>
</svg>
